<svg xmlns="http://www.w3.org/2000/svg" version="1.1" xmlns:xlink="http://www.w3.org/1999/xlink" xmlns:svgjs="http://svgjs.dev/svgjs" width="1440" height="1024" preserveAspectRatio="none" viewBox="0 0 1440 1024"><g mask="url(&quot;#SvgjsMask1061&quot;)" fill="none"><rect width="1440" height="1024" x="0" y="0" fill="rgba(234, 245, 244, 1)"></rect><path d="M922.95,1239.245C1005.563,1239.34,1097.076,1237.426,1143.232,1168.909C1193.713,1093.972,1187.688,993.186,1140.69,916.017C1095.456,841.745,1009.714,801.359,922.95,807.218C844.944,812.485,791.4,875.523,750.809,942.344C707.972,1012.862,662.16,1097.024,703.545,1168.403C744.861,1239.663,840.579,1239.15,922.95,1239.245" fill="rgba(24, 159, 146, 0.25)" class="triangle-float3"></path><path d="M1170.9844397916058 919.3784324889962L1355.0489171919653 929.0248429944426 1364.6953276974116 744.9603655940831 1180.6308502970521 735.3139550886367z" fill="rgba(24, 159, 146, 0.25)" class="triangle-float3"></path><path d="M294.4557584999902 376.4501545320211L277.40594656140337 255.13443889185555 103.95727907044852 341.36701461981863z" fill="rgba(24, 159, 146, 0.25)" class="triangle-float1"></path><path d="M1044.9761831527342 1074.5904671362894L1223.2467736224962 838.0174032061785 986.6737096923855 659.7468127364164 808.4031192226233 896.3198766665272z" fill="rgba(24, 159, 146, 0.25)" class="triangle-float3"></path><path d="M170.42528232400718-112.79336473036452L23.64457859805509-34.748680173366594 214.10195729652798 146.40003313706256z" fill="rgba(24, 159, 146, 0.25)" class="triangle-float1"></path><path d="M992.5920370203919 404.5843368820923L782.3408208289694 257.364850387099 635.1213343339762 467.6160665785215 845.3725505253985 614.8355530735148z" fill="rgba(24, 159, 146, 0.25)" class="triangle-float1"></path><path d="M1027.9663084390152 729.3289149241966L1284.7489123279383 702.5873736910206 1155.3028555837045 517.7192457711162z" fill="rgba(24, 159, 146, 0.25)" class="triangle-float1"></path><path d="M849.6053231876159 92.50520795874253L738.657547682865-60.2013043624911 565.0716669533899 182.57361505525208z" fill="rgba(24, 159, 146, 0.25)" class="triangle-float1"></path><path d="M263.85363477174434 219.5325475271047L201.0785963796012 26.33084532206135 7.876894174557862 89.10588371420448 70.65193256670099 282.30758591924786z" fill="rgba(24, 159, 146, 0.25)" class="triangle-float2"></path><path d="M905.5567915566434 3.655797480974897L1059.2887030631584 215.67424010340977 1156.0392486728192 8.192025480416504z" fill="rgba(24, 159, 146, 0.25)" class="triangle-float1"></path><path d="M247.0845348093655 767.4336698689767L122.07445167753738 646.7128358508713 3.4982422162932494 894.5883775576661z" fill="rgba(24, 159, 146, 0.25)" class="triangle-float2"></path><path d="M1464.873,1272.309C1558.298,1267.325,1630.16,1199.253,1676.389,1117.914C1721.959,1037.734,1744.608,940.781,1698.784,860.746C1652.727,780.304,1557.556,749.917,1464.873,748.485C1369.094,747.005,1270.058,772.845,1218.099,853.319C1161.985,940.229,1157.792,1053.638,1210.293,1142.777C1262.082,1230.708,1362.969,1277.745,1464.873,1272.309" fill="rgba(24, 159, 146, 0.25)" class="triangle-float1"></path><path d="M488.88311097593385 368.1508723065418L293.39765337192324 392.15346838135366 317.4002494467351 587.6389259853643 512.8857070507456 563.6363299105524z" fill="rgba(24, 159, 146, 0.25)" class="triangle-float3"></path><path d="M1464.343,589.436C1526.634,590.128,1589.722,566.655,1620.941,512.748C1652.222,458.735,1639.147,393.448,1609.725,338.4C1578.124,279.274,1531.227,224.348,1464.343,219.757C1390.177,214.666,1314.04,249.799,1279.724,315.746C1247.311,378.034,1274.39,451.123,1313.657,509.334C1347.752,559.878,1403.379,588.759,1464.343,589.436" fill="rgba(24, 159, 146, 0.25)" class="triangle-float3"></path><path d="M1121.9438345808637 318.76767638847014L981.2205066141926 196.43875368567947 999.614911878073 459.4910043551413z" fill="rgba(24, 159, 146, 0.25)" class="triangle-float2"></path><path d="M821.3161796486177 106.96730774926364L792.9330010801633-72.23702892860744 613.7286644022922-43.85385036015303 642.1118429707466 135.35048631771804z" fill="rgba(24, 159, 146, 0.25)" class="triangle-float3"></path></g><defs><mask id="SvgjsMask1061"><rect width="1440" height="1024" fill="#ffffff"></rect></mask><style>
                @keyframes float1 {
                    0%{transform: translate(0, 0)}
                    50%{transform: translate(-10px, 0)}
                    100%{transform: translate(0, 0)}
                }

                .triangle-float1 {
                    animation: float1 5s infinite;
                }

                @keyframes float2 {
                    0%{transform: translate(0, 0)}
                    50%{transform: translate(-5px, -5px)}
                    100%{transform: translate(0, 0)}
                }

                .triangle-float2 {
                    animation: float2 4s infinite;
                }

                @keyframes float3 {
                    0%{transform: translate(0, 0)}
                    50%{transform: translate(0, -10px)}
                    100%{transform: translate(0, 0)}
                }

                .triangle-float3 {
                    animation: float3 6s infinite;
                }
            </style></defs></svg>